<svg width="27" height="25" viewBox="0 0 27 25" fill="none" xmlns="http://www.w3.org/2000/svg">
<path d="M17.6932 20.3527C16.9586 20.9713 16.3597 21.701 15.9408 22.52C15.3809 23.6146 16.2661 24.9427 17.7159 24.9982C19.5668 25.0689 21.1115 23.0779 22.2977 22.079L25.6358 19.2679C26.2108 18.7837 26.8998 18.2955 26.9423 17.5592C27.0066 16.4455 26.1102 15.8642 25.2431 15.134L20.7922 11.3859C20.1253 10.8242 19.4016 9.95649 18.4359 9.76986C16.7879 9.45127 15.3244 10.7331 15.8898 12.1024C16.2724 13.0291 16.718 13.3278 17.5196 14.0028C10.1388 14.4933 5.78751 18.5889 5.78751 18.5889C5.78751 18.5889 5.78751 18.5889 5.34654 20.3527C16.8113 20.3527 9.75607 20.3527 17.6932 20.3527Z" fill="#91C28E"/>
<path d="M14.4136 16.77V20.3527H0.413393V17.3212L6.86233 10.5415C7.43189 9.88929 7.89122 9.30594 8.24031 8.7915C8.5894 8.26787 8.84203 7.79476 8.9982 7.37218C9.16355 6.9496 9.24623 6.56836 9.24623 6.22846C9.24623 5.64971 9.15896 5.16742 8.98442 4.78158C8.81906 4.38656 8.57102 4.088 8.24031 3.8859C7.91878 3.68379 7.51917 3.58274 7.04147 3.58274C6.56377 3.58274 6.14578 3.72054 5.78751 3.99614C5.42923 4.27173 5.14904 4.64838 4.94694 5.12608C4.75402 5.60378 4.65757 6.14119 4.65757 6.73831H0C0 5.50732 0.298562 4.38197 0.895686 3.36227C1.502 2.34256 2.34256 1.52956 3.41739 0.923245C4.49221 0.307748 5.73698 0 7.15171 0C8.63074 0 9.87092 0.229663 10.8722 0.688989C11.8736 1.14831 12.6269 1.81434 13.1321 2.68706C13.6466 3.55059 13.9038 4.59326 13.9038 5.81507C13.9038 6.51324 13.7936 7.18386 13.5731 7.82691C13.3526 8.46997 13.0357 9.10843 12.6223 9.7423C12.2089 10.367 11.7036 11.01 11.1065 11.6715C10.5186 12.3329 9.84795 13.0357 9.09465 13.7798L6.50406 16.77H14.4136Z" fill="#707070"/>
</svg>
