<svg width="22" height="22" viewBox="0 0 22 22" fill="none" xmlns="http://www.w3.org/2000/svg">
<path d="M13.9467 13.3786L9.1065 20.6178C9.01865 20.749 8.89998 20.8566 8.76087 20.9313C8.62177 21.006 8.46647 21.0455 8.30859 21.0462L7.11303 21.0502C6.96098 21.0498 6.81121 21.0131 6.67618 20.9432C6.54115 20.8733 6.42476 20.7722 6.33669 20.6482C6.24862 20.5243 6.19142 20.3811 6.16983 20.2306C6.14825 20.0801 6.16291 19.9266 6.21259 19.7829L8.57488 13.3144L3.89943 12.9515L3.0347 14.3612C2.92562 14.5393 2.77287 14.6866 2.59093 14.7891C2.40899 14.8916 2.20388 14.9459 1.99506 14.9469L1.67963 14.9479C1.56528 14.9484 1.45196 14.9263 1.34622 14.8827C1.24048 14.8392 1.14441 14.7752 1.06355 14.6943C0.982695 14.6135 0.918656 14.5174 0.875135 14.4117C0.831613 14.3059 0.809469 14.1926 0.809983 14.0782L0.831272 7.95208C0.832392 7.72013 0.925031 7.498 1.08905 7.33398C1.25306 7.16997 1.47519 7.07733 1.70714 7.07621L2.02421 7.0749C2.23179 7.07364 2.43617 7.12606 2.61753 7.22707C2.79888 7.32807 2.95105 7.47424 3.05927 7.65139L3.91417 9.05527L8.59225 8.6609L6.26435 2.18359C6.22071 2.03993 6.21123 1.88806 6.23664 1.74008C6.26206 1.5921 6.32167 1.45209 6.41074 1.33122C6.4998 1.21034 6.61586 1.11193 6.74967 1.04382C6.88348 0.975712 7.03134 0.939785 7.18149 0.938902L8.3777 0.931695C8.53489 0.931092 8.68977 0.969461 8.8285 1.04337C8.96723 1.11728 9.08548 1.22442 9.17266 1.35522L13.9624 8.56034C15.6696 8.49876 17.1105 8.49122 18.4151 8.55837C19.458 8.49933 20.4823 8.85222 21.2675 9.54102C21.6455 9.91188 21.8646 10.4152 21.8783 10.9446C21.859 11.4746 21.6364 11.9769 21.2566 12.3471C20.6367 12.9166 19.8416 13.2582 19.0018 13.316C18.8101 13.337 18.6175 13.3484 18.4246 13.3501C17.0918 13.4231 15.6503 13.43 13.9467 13.3786ZM18.4014 12.0684C19.1008 12.1118 19.7914 11.8946 20.3402 11.4588C20.4851 11.3263 20.5765 11.1454 20.5973 10.9501C20.58 10.7529 20.4897 10.5691 20.3441 10.4349C19.786 9.99777 19.0847 9.78482 18.3778 9.83778C16.9936 9.76965 15.479 9.78013 13.6457 9.85318L13.2877 9.86792L13.0898 9.5705L8.20017 2.21373L7.63973 2.21602L10.363 9.79815L9.52642 9.8689L3.83098 10.3491C3.64956 10.3643 3.46748 10.3289 3.30506 10.2466C3.14264 10.1644 3.00628 10.0386 2.91122 9.88331L2.11036 8.5682L2.09332 13.452L2.90303 12.1319C2.99839 11.9754 3.13523 11.8484 3.29839 11.7649C3.46155 11.6814 3.64465 11.6447 3.82737 11.659L10.3551 12.1657L10.0665 12.9554L7.57913 19.7665L8.14121 19.7645L13.2834 12.0733L13.6414 12.0854C15.2248 12.1398 16.5707 12.146 17.8023 12.0969L18.4014 12.0684ZM1.94396 13.6963C1.9498 13.6868 1.95798 13.6789 1.96773 13.6734C1.97747 13.6679 1.98845 13.665 1.99964 13.6649L1.96296 13.6649L1.94396 13.6963ZM2.01799 8.3566C2.00684 8.35669 1.99586 8.3539 1.98611 8.3485C1.97636 8.34311 1.96816 8.3353 1.9623 8.32581L1.9813 8.35726L2.01799 8.3566Z" fill="#707070"/>
</svg>
