<svg width="24" height="22" viewBox="0 0 24 22" fill="none" xmlns="http://www.w3.org/2000/svg">
<path d="M21.0085 7.35675C20.7642 7.43263 20.5572 7.59736 20.4284 7.81842C20.2996 8.03948 20.2583 8.3008 20.3128 8.55079C20.5098 9.33094 20.61 10.1324 20.6111 10.937C20.6109 12.7066 20.0859 14.4364 19.1026 15.9077C18.1193 17.3789 16.7218 18.5256 15.0868 19.2026C13.4518 19.8796 11.6528 20.0567 9.91724 19.7113C8.18166 19.3659 6.58747 18.5136 5.33626 17.2622C4.08504 16.0108 3.23299 14.4165 2.88784 12.6809C2.5427 10.9453 2.71996 9.14629 3.39722 7.51141C4.07448 5.87653 5.22131 4.47918 6.6927 3.49606C8.1641 2.51295 9.89397 1.98821 11.6636 1.98821C13.3081 2.00323 14.9199 2.44862 16.3388 3.28006C16.5671 3.40967 16.835 3.4509 17.0917 3.39589C17.3483 3.34088 17.5759 3.19348 17.7309 2.9817C17.8606 2.75344 17.9018 2.48551 17.8468 2.22885C17.7918 1.97218 17.6444 1.74468 17.4326 1.58959C15.675 0.580365 13.6901 0.0334504 11.6636 1.73093e-08C9.50054 -0.000121652 7.38604 0.641183 5.58747 1.84282C3.78891 3.04445 2.38707 4.75244 1.55923 6.75079C0.731383 8.74915 0.514718 10.9481 0.936632 13.0696C1.35855 15.1911 2.40009 17.1398 3.92955 18.6694C5.459 20.1989 7.40768 21.2406 9.52915 21.6626C11.6506 22.0846 13.8496 21.8681 15.848 21.0404C17.8464 20.2126 19.5545 18.8109 20.7562 17.0124C21.9579 15.2139 22.5994 13.0994 22.5994 10.9364C22.6209 9.9603 22.4867 8.98701 22.202 8.05312C22.1262 7.80879 21.9616 7.60174 21.7407 7.47283C21.5198 7.34391 21.2585 7.30249 21.0085 7.35675Z" fill="#0F9196"/>
<path d="M23.2965 1.29211C23.2068 1.19781 23.0988 1.12272 22.9791 1.07141C22.8595 1.02011 22.7306 0.993652 22.6005 0.993652C22.4703 0.993652 22.3414 1.02011 22.2218 1.07141C22.1021 1.12272 21.9942 1.19781 21.9044 1.29211L11.6644 11.5321L8.38308 8.2527C8.29318 8.15536 8.18455 8.07718 8.06369 8.02284C7.94284 7.9685 7.81227 7.93912 7.67979 7.93646C7.54731 7.9338 7.41566 7.95792 7.29272 8.00737C7.16979 8.05682 7.05811 8.13058 6.96437 8.22424C6.87064 8.31789 6.79677 8.42951 6.74722 8.5524C6.69766 8.67529 6.67342 8.80692 6.67596 8.9394C6.6785 9.07188 6.70777 9.20248 6.762 9.32338C6.81624 9.44428 6.89432 9.55298 6.99158 9.64297L10.9686 13.62C11.1566 13.8006 11.4039 13.9066 11.6644 13.9184C11.9248 13.9066 12.1721 13.8006 12.3601 13.62L23.2965 2.68362C23.3907 2.59387 23.4657 2.48593 23.517 2.36634C23.5682 2.24674 23.5947 2.11798 23.5947 1.98787C23.5947 1.85775 23.5682 1.72899 23.517 1.6094C23.4657 1.4898 23.3907 1.38186 23.2965 1.29211Z" fill="#7BBB58"/>
</svg>
