<svg width="26" height="25" viewBox="0 0 26 25" fill="none" xmlns="http://www.w3.org/2000/svg">
<path d="M24.9686 1.13066C24.8901 0.612439 24.3405 0.0157045 23.6338 0.0157045C23.5396 0.0157045 23.4296 0 23.3354 0C16.0961 0 8.85678 0 1.61746 0C1.52324 0 1.41332 0.0157045 1.31909 0.0157045C0.518215 0.0785185 0 0.675254 0 1.53895C0 8.84108 0 16.1275 0 23.4296C0 24.4033 0.581029 25 1.55465 25C8.85678 25 16.1432 25 23.4453 25C24.4504 25 25.0157 24.419 25.0157 23.4139C25.0157 16.1589 25.0157 8.88819 25.0157 1.63317C25 1.46043 24.9843 1.28769 24.9686 1.13066ZM21.3568 11.0553C21.294 11.652 21.294 12.2645 21.2626 12.8612C21.2469 13.191 21.1997 13.5207 21.184 13.8505C21.1683 14.0704 21.027 14.0232 20.9014 14.0232C19.9906 14.0232 19.0798 14.0389 18.169 14.0075C17.8235 13.9918 17.7607 14.1175 17.7607 14.4315C17.7764 15.8291 17.7607 17.2268 17.7607 18.6244C17.7607 18.6244 17.7607 18.6244 17.7764 18.6244C17.7764 20.0377 17.7764 21.4667 17.7764 22.88C17.7764 23.1313 17.7136 23.2255 17.4466 23.2098C16.5044 23.1941 15.5465 23.1941 14.6043 23.2098C14.3216 23.2098 14.2588 23.1156 14.2588 22.8486C14.2745 20.0377 14.2745 17.2425 14.2745 14.4315C14.2745 14.0075 14.2745 14.0075 13.8348 14.0075C13.2695 14.0075 12.6884 14.0075 12.1231 14.0075C11.919 14.0075 11.8405 13.9604 11.8405 13.7406C11.8562 12.8141 11.8562 11.8876 11.8405 10.9611C11.8405 10.7412 11.919 10.6784 12.1231 10.6941C12.7356 10.7098 13.3323 10.6784 13.9447 10.7098C14.2117 10.7255 14.2902 10.6313 14.2902 10.38C14.2745 9.54774 14.2745 8.71545 14.2902 7.86746C14.3059 5.70038 15.5151 4.22425 17.6193 3.75314C18.5302 3.549 19.4567 3.61181 20.3832 3.65892C20.4146 3.65892 20.446 3.65892 20.4774 3.67463C20.7601 3.72174 21.1369 3.5804 21.2783 3.81596C21.4039 4.0044 21.3254 4.34988 21.3097 4.61684C21.294 5.26068 21.2626 5.88882 21.2626 6.53266C21.2626 6.75251 21.1997 6.83103 20.9642 6.83103C20.3518 6.81533 19.755 6.81533 19.1426 6.83103C18.169 6.83103 17.7921 7.17651 17.7607 8.13442C17.7293 8.9196 17.7607 9.68907 17.745 10.4742C17.745 10.7098 17.8706 10.7098 18.0433 10.7098C19.0327 10.7098 20.022 10.7098 21.0113 10.7098C21.3097 10.6941 21.3882 10.7569 21.3568 11.0553Z" fill="#707070"/>
</svg>
