<svg width="1280" height="340" viewBox="0 0 1280 340" fill="none" xmlns="http://www.w3.org/2000/svg">
<path opacity="0.75" d="M-104.016 178.926C-98.8703 160.43 0.299002 191.898 178.135 183.352C287.061 178.116 363.649 174.435 451.029 138.118C584.849 82.4999 562.535 25.7491 736.277 -63.8582C819.016 -106.531 856.382 -110.321 918.662 -164.102C979.116 -216.307 977.491 -241.735 1037.54 -285.996C1069.56 -309.597 1158.02 -374.799 1241.18 -351.23C1292.97 -336.551 1287.51 -303.077 1360.02 -249.538C1461.22 -174.813 1522.7 -202.49 1558.46 -148.251C1614.22 -63.6699 1519.01 85.9814 1510.01 99.7997C1419.38 238.958 1263.82 278.542 1215.79 290.026C1122.29 312.383 1101.35 292.796 790.612 262.462C568.348 240.765 455.638 230.179 378.352 243.028C269.913 261.057 221.568 289.876 119.181 277.476C-5.23007 262.411 -109.487 198.594 -104.016 178.926Z" fill="#F9F9F9"/>
</svg>
