<svg width="33" height="33" viewBox="0 0 33 33" fill="none" xmlns="http://www.w3.org/2000/svg">
<path d="M7.45794 14.4155C11.2948 14.4155 14.4157 11.2947 14.4157 7.45777C14.4157 3.62087 11.2948 0.5 7.45777 0.5C3.62091 0.5 0.5 3.62064 0.5 7.45755C0.5 11.2946 3.62088 14.4155 7.45794 14.4155ZM7.45777 4.20632C9.2503 4.20632 10.7094 5.66544 10.7094 7.45777C10.7094 9.25011 9.25028 10.7092 7.45794 10.7092C5.66542 10.7092 4.20632 9.25011 4.20632 7.4576C4.20632 5.66532 5.66544 4.20632 7.45777 4.20632Z" fill="#F8D6CD" stroke="#F8D6CD"/>
<path d="M24.5441 17.5859C20.7068 17.5859 17.5859 20.7068 17.5859 24.5442C17.5859 28.3811 20.7069 31.5015 24.5441 31.5015C28.3811 31.5015 31.5016 28.3811 31.5016 24.5442C31.5016 20.7069 28.3811 17.5859 24.5441 17.5859ZM24.5441 27.7952C22.7516 27.7952 21.2924 26.3361 21.2924 24.5441C21.2924 22.7512 22.7516 21.2923 24.5441 21.2923C26.3362 21.2923 27.7952 22.7512 27.7952 24.5441C27.7952 26.3363 26.3362 27.7952 24.5441 27.7952Z" fill="#F8D6CD" stroke="#F8D6CD"/>
<path d="M28.3388 1.06538L28.3386 1.06553L1.06617 28.3383L1.06611 28.3384C0.342537 29.0622 0.342557 30.2354 1.0661 30.9592L1.06643 30.9595C1.42815 31.3207 1.90329 31.5017 2.37667 31.5017C2.85004 31.5017 3.32512 31.3207 3.68685 30.9596L3.68713 30.9593L30.9596 3.68653L30.9597 3.68642C31.683 2.96262 31.683 1.78948 30.9597 1.06565L30.9595 1.0654C30.2357 0.342126 29.0626 0.342146 28.3388 1.06538Z" fill="#F8D6CD" stroke="#F8D6CD"/>
</svg>
