<svg width="34" height="34" viewBox="0 0 34 34" fill="none" xmlns="http://www.w3.org/2000/svg">
<path d="M9.933 28.468L13.0304 26.531C13.3696 26.3187 13.7742 26.2363 14.1694 26.2993C14.9508 26.4251 15.7471 26.488 16.555 26.488C23.9104 26.488 29.799 21.2533 29.799 14.8995C29.799 8.54569 23.9104 3.311 16.555 3.311C9.19961 3.311 3.311 8.54569 3.311 14.8995C3.311 17.3877 4.20994 19.7584 5.86047 21.7317C6.00347 21.898 6.11201 22.0911 6.17978 22.2997C6.24755 22.5082 6.27319 22.7282 6.25523 22.9468C6.23727 23.1654 6.17605 23.3782 6.07514 23.5729C5.97423 23.7676 5.83563 23.9404 5.6674 24.0811C5.49916 24.2218 5.30465 24.3277 5.09515 24.3926C4.88566 24.4575 4.66536 24.4801 4.44704 24.4591C4.22873 24.4382 4.01676 24.374 3.82344 24.2704C3.63012 24.1669 3.45931 24.0259 3.32093 23.8558C1.18203 21.298 0 18.1807 0 14.8995C0 6.62366 7.45306 0 16.555 0C25.6569 0 33.11 6.62366 33.11 14.8995C33.11 23.1753 25.6569 29.799 16.555 29.799C15.7868 29.799 15.0253 29.7526 14.2737 29.6583L9.15492 32.8584C8.90432 33.015 8.61637 33.1017 8.32095 33.1094C8.02554 33.1172 7.73344 33.0457 7.47497 32.9025C7.2165 32.7592 7.00108 32.5494 6.85109 32.2948C6.7011 32.0401 6.622 31.75 6.622 31.4545V25.9135C6.622 25.4745 6.79642 25.0534 7.10688 24.7429C7.41735 24.4325 7.83843 24.258 8.2775 24.258C8.71657 24.258 9.13765 24.4325 9.44812 24.7429C9.75858 25.0534 9.933 25.4745 9.933 25.9135V28.468ZM10.8518 17.9324C10.6709 18.053 10.4681 18.1369 10.2548 18.1791C10.0415 18.2214 9.82196 18.2212 9.60874 18.1786C9.39552 18.1361 9.19278 18.0519 9.01208 17.931C8.83139 17.81 8.67628 17.6547 8.55562 17.4738C8.31194 17.1085 8.22336 16.6614 8.30936 16.2307C8.39536 15.8001 8.6489 15.4213 9.0142 15.1776L13.9807 11.8666C14.2992 11.6543 14.6814 11.5588 15.0623 11.5966C15.4432 11.6343 15.7993 11.8028 16.0699 12.0736L18.4207 14.4244L22.2582 11.8666C22.6235 11.6229 23.0706 11.5344 23.5013 11.6204C23.9319 11.7064 24.3107 11.9599 24.5544 12.3252C24.7981 12.6905 24.8866 13.1376 24.8006 13.5683C24.7146 13.9989 24.4611 14.3777 24.0958 14.6214L19.1293 17.9324C18.8108 18.1447 18.4286 18.2402 18.0477 18.2024C17.6668 18.1647 17.3107 17.9961 17.0401 17.7254L14.6893 15.3746L10.8518 17.9324Z" fill="#91C28E"/>
</svg>
