<svg width="34" height="31" viewBox="0 0 34 31" fill="none" xmlns="http://www.w3.org/2000/svg">
<path d="M4.54851 30.7779C4.93093 30.8294 5.48082 30.8808 6.13752 30.8808C8.9595 30.8808 13.7443 29.9096 15.6769 23.8219L32.8059 6.43772C34.1793 5.04454 34.1635 2.79223 32.7676 1.41685C31.4206 0.0928897 29.0753 0.108714 27.7487 1.45575L10.7628 18.6955C8.10038 18.8346 3.69862 20.5318 3.0584 26.1876C2.96807 26.4395 2.60016 27.3065 1.80566 27.4443C1.03555 27.5775 0.70126 28.1617 0.71115 28.6806C0.737524 30.0612 3.12631 30.5874 4.54851 30.7779ZM29.3456 3.02761C29.8309 2.53575 30.7026 2.52784 31.1951 3.01443C31.7087 3.5208 31.7153 4.34959 31.209 4.86388L18.0465 18.2241L16.1832 16.3892L29.3456 3.02761ZM14.6094 17.9848L16.4727 19.8197L14.6885 21.6309L12.8259 19.796L14.6094 17.9848ZM5.24214 26.7171L5.27577 26.5384C5.765 21.776 9.46983 21.0507 10.7991 20.9465L13.4114 23.5212C12.5621 25.9008 11.0872 27.4812 9.00434 28.2032C7.27818 28.7999 5.51906 28.701 4.28148 28.4617C4.80368 27.8736 5.11225 27.199 5.24214 26.7171Z" fill="#90B7BB"/>
</svg>
