<svg width="25" height="25" viewBox="0 0 25 25" fill="none" xmlns="http://www.w3.org/2000/svg">
<path d="M24.9316 7.21626C24.9316 7.00923 24.9316 6.80221 24.9316 6.59519C24.6802 6.2255 24.7393 5.78188 24.6358 5.38262C23.8817 2.3512 21.6783 0.443621 18.573 0.118297C18.4399 0.10351 18.2772 0.192236 18.2033 0C18.1146 0 18.0406 0 17.9519 0C17.7005 0.221811 17.4491 0.162662 17.1978 0C13.9593 0 10.7209 0 7.48243 0C7.31977 0.162662 7.15711 0.221811 6.97966 0C6.817 0 6.65433 0 6.47689 0C6.01848 0.295748 5.45655 0.2366 4.96857 0.399262C2.33641 1.22736 0.768942 2.98706 0.236595 5.69315C0.192233 5.95933 0.251386 6.26986 0 6.47688C0 6.63955 0 6.80221 0 6.97966C0.221811 7.23105 0.162662 7.48243 0 7.73381C0 10.8835 0 14.048 0 17.1978C0.162662 17.4491 0.221811 17.7005 0 17.9519C0 18.1146 0 18.2772 0 18.4547C0.325323 18.9722 0.280957 19.5785 0.458406 20.1405C1.22735 22.6691 3.35674 24.5619 6.43252 24.7837C10.4399 25.0647 14.4621 25.0794 18.4843 24.7837C21.6192 24.5471 24.2218 22.6247 24.7837 18.6913C24.7985 18.5582 24.7246 18.3955 24.9168 18.3216C24.9168 18.1146 24.9168 17.9076 24.9168 17.7005C24.6802 17.4491 24.7985 17.1978 24.9168 16.9464C24.9168 13.8706 24.9168 10.7948 24.9168 7.73381C24.7837 7.54158 24.7098 7.37892 24.9316 7.21626ZM22.5804 17.8188C22.4621 20.658 20.6876 22.4325 17.8484 22.5508C16.0443 22.6247 14.2403 22.6691 12.4362 22.6543C10.6469 22.6691 8.87244 22.6247 7.08317 22.5508C4.25877 22.4325 2.48428 20.6432 2.38077 17.804C2.2329 14.2403 2.2329 10.6765 2.38077 7.09796C2.49907 4.24399 4.27356 2.45471 7.14232 2.3512C10.7061 2.20332 14.2699 2.20332 17.8484 2.3512C20.6728 2.4695 22.4769 4.2292 22.5804 7.0536C22.7135 10.6322 22.7135 14.2255 22.5804 17.8188Z" fill="#707070"/>
<path d="M12.4678 6.01959C8.91879 6.03437 6.02045 8.94749 6.05003 12.4817C6.09439 16.0159 8.94836 18.8699 12.4826 18.8551C16.0167 18.8403 18.8559 16.0159 18.8855 12.4669C18.9151 8.91792 16.0167 6.0048 12.4678 6.01959ZM12.4826 16.563C10.1757 16.563 8.35687 14.7294 8.35687 12.4225C8.35687 10.1305 10.2053 8.32642 12.5269 8.34121C14.7894 8.356 16.5935 10.1896 16.5935 12.4817C16.5935 14.7294 14.7598 16.563 12.4826 16.563Z" fill="#707070"/>
<path d="M19.12 4.27441C18.2919 4.27441 17.6117 4.95464 17.5969 5.76794C17.5821 6.59604 18.3067 7.32062 19.12 7.32062C19.9481 7.32062 20.6579 6.59604 20.6283 5.75316C20.6135 4.93985 19.9333 4.27441 19.12 4.27441Z" fill="#707070"/>
</svg>
