<svg width="20" height="20" viewBox="0 0 20 20" fill="none" xmlns="http://www.w3.org/2000/svg">
<path d="M10 0C4.48 0 0 4.48 0 10C0 15.52 4.48 20 10 20C15.52 20 20 15.52 20 10C20 4.48 15.52 0 10 0ZM10 1.53846C14.6708 1.53846 18.4615 5.32923 18.4615 10C18.4615 14.6708 14.6708 18.4615 10 18.4615C5.32923 18.4615 1.53846 14.6708 1.53846 10C1.53846 5.32923 5.32923 1.53846 10 1.53846Z" fill="#707070"/>
<path d="M11.6238 5.88678C11.6238 6.26931 11.4718 6.63617 11.2013 6.90666C10.9308 7.17716 10.564 7.32912 10.1815 7.32912C9.79895 7.32912 9.4321 7.17716 9.16162 6.90666C8.89114 6.63617 8.73918 6.26931 8.73918 5.88678C8.73918 5.50425 8.89114 5.13738 9.16162 4.86689C9.4321 4.5964 9.79895 4.44444 10.1815 4.44444C10.564 4.44444 10.9308 4.5964 11.2013 4.86689C11.4718 5.13738 11.6238 5.50425 11.6238 5.88678Z" fill="#707070"/>
<path d="M11.7092 13.5418C11.7003 13.8918 11.8644 13.9905 12.2639 14.0316L12.906 14.0444V14.7008H7.89662V14.0444L8.60213 14.0316C9.02405 14.0187 9.12546 13.8546 9.15687 13.5418V9.59143C9.16136 8.96591 8.34969 9.06412 7.77777 9.08271V8.43219L11.7092 8.29053" fill="#707070"/>
</svg>
