<svg width="47" height="29" viewBox="0 0 47 29" fill="none" xmlns="http://www.w3.org/2000/svg">
<path d="M29.8038 25.8996H17.1172V3.1001H29.804L29.8038 25.8996Z" fill="#FF5F00"/>
<path d="M17.9206 14.5C17.9206 9.87512 20.0861 5.75525 23.4582 3.10024C20.9057 1.08756 17.7487 -0.00478713 14.4981 1.57708e-05C6.49083 1.57708e-05 0 6.49178 0 14.5C0 22.5082 6.49083 29 14.4981 29C17.7487 29.0048 20.9059 27.9125 23.4584 25.8998C20.0866 23.2452 17.9206 19.1251 17.9206 14.5Z" fill="#EB001B"/>
<path d="M46.9186 14.5C46.9186 22.5082 40.4277 29 32.4205 29C29.1695 29.0048 26.012 27.9124 23.459 25.8998C26.832 23.2447 28.9975 19.1251 28.9975 14.5C28.9975 9.87489 26.832 5.75525 23.459 3.10024C26.012 1.08762 29.1693 -0.00470294 32.4202 1.52207e-05C40.4275 1.52207e-05 46.9183 6.49178 46.9183 14.5" fill="#F79E1B"/>
</svg>
