<svg width="20" height="20" viewBox="0 0 20 20" fill="none" xmlns="http://www.w3.org/2000/svg">
<path d="M10.318 9.99729L18.9342 1.37851C18.9739 1.33584 18.9956 1.27941 18.9946 1.2211C18.9935 1.16279 18.9699 1.10716 18.9287 1.06592C18.8875 1.02469 18.8318 1.00106 18.7735 1.00004C18.7153 0.999006 18.6588 1.02065 18.6162 1.06041L10 9.67919L1.38381 1.06041C1.34116 1.02065 1.28474 0.999006 1.22645 1.00004C1.16816 1.00106 1.11254 1.02469 1.07132 1.06592C1.03009 1.10716 1.00648 1.16279 1.00545 1.2211C1.00442 1.27941 1.02606 1.33584 1.0658 1.37851L9.68199 9.99729L1.0658 18.6161C1.02367 18.6583 1 18.7155 1 18.7751C1 18.8348 1.02367 18.892 1.0658 18.9342C1.10799 18.9763 1.16518 19 1.22481 19C1.28443 19 1.34162 18.9763 1.38381 18.9342L10 10.3154L18.6162 18.9342C18.6584 18.9763 18.7156 19 18.7752 19C18.8348 19 18.892 18.9763 18.9342 18.9342C18.9763 18.892 19 18.8348 19 18.7751C19 18.7155 18.9763 18.6583 18.9342 18.6161L10.318 9.99729Z" stroke="#707070"/>
</svg>
