<svg width="25" height="29" viewBox="0 0 25 29" fill="none" xmlns="http://www.w3.org/2000/svg">
<path d="M21.9649 8.88274L6.36842 25.9014H0.647873C0.250613 25.9014 -0.0671957 25.5041 0.0122564 25.1068L3.82596 0.953425C3.90541 0.39726 4.38212 0 4.93828 0H14.6314C21.3054 0.238356 23.1328 3.65479 21.941 8.89863L21.9649 8.88274Z" fill="#002C8A"/>
<path d="M22.2195 7.30957C24.6031 8.5808 25.1592 10.9644 24.3647 14.1424C23.3318 18.8301 20.2332 20.8164 15.7044 20.8959L14.4332 20.9753C13.9565 20.9753 13.6387 21.2931 13.5592 21.7698L12.5263 28.0466C12.4469 28.6027 11.9702 29 11.414 29H6.6469C6.24964 29 5.93183 28.6027 6.01128 28.2055L7.75922 16.8438C7.83868 16.4466 22.2195 7.30957 22.2195 7.30957Z" fill="#009BE1"/>
<path d="M7.66309 17.3999L9.25213 7.30952C9.30425 7.07055 9.43369 6.85542 9.6204 6.69743C9.80712 6.53944 10.0407 6.4474 10.285 6.43555H17.9124C19.7398 6.43555 21.0905 6.75336 22.2028 7.30952C21.8056 10.8054 20.1371 16.4465 12.0329 16.6054H8.53706C8.1398 16.6054 7.74254 16.9232 7.66309 17.3999Z" fill="#001F6B"/>
</svg>
