<svg width="46" height="29" viewBox="0 0 46 29" fill="none" xmlns="http://www.w3.org/2000/svg">
<path d="M39.24 0H6C2.68629 0 0 2.68629 0 6V23C0 26.3137 2.68629 29 6 29H39.24C42.5537 29 45.24 26.3137 45.24 23V6C45.24 2.68629 42.5537 0 39.24 0Z" fill="#0E4595"/>
<path d="M17.0084 20.2258L18.9433 8.87176H22.0382L20.1019 20.2258H17.0084ZM31.2828 9.11652C30.6697 8.8865 29.7088 8.63965 28.5091 8.63965C25.451 8.63965 23.2969 10.1795 23.2786 12.3866C23.2613 14.0182 24.8164 14.9283 25.9903 15.4714C27.195 16.0279 27.5999 16.3828 27.5942 16.8798C27.5866 17.6408 26.6322 17.9886 25.7427 17.9886C24.504 17.9886 23.8459 17.8165 22.8295 17.3925L22.4307 17.2122L21.9964 19.7539C22.7192 20.0708 24.056 20.3454 25.4438 20.3596C28.697 20.3596 30.8088 18.8373 30.8329 16.4804C30.8444 15.1888 30.02 14.2059 28.2344 13.3955C27.1527 12.8703 26.4903 12.5198 26.4973 11.988C26.4973 11.516 27.058 11.0113 28.2696 11.0113C29.2816 10.9957 30.0148 11.2164 30.586 11.4463L30.8633 11.5774L31.2828 9.11652M39.2467 8.87159H36.8553C36.1144 8.87159 35.56 9.07384 35.2347 9.81316L30.6385 20.2184H33.8883C33.8883 20.2184 34.4196 18.8192 34.5398 18.5121C34.8951 18.5121 38.052 18.517 38.5034 18.517C38.596 18.9145 38.8798 20.2184 38.8798 20.2184H41.7516L39.2467 8.87124V8.87159ZM35.4525 16.2034C35.7084 15.5492 36.6856 13.0294 36.6856 13.0294C36.6672 13.0597 36.9396 12.3721 37.0959 11.9458L37.305 12.9247C37.305 12.9247 37.8977 15.635 38.0215 16.2034H35.4525ZM14.3811 8.87159L11.3512 16.6146L11.0283 15.0411C10.4642 13.2272 8.70682 11.2621 6.74219 10.2782L9.51262 20.2078L12.7871 20.2041L17.6593 8.87147H14.3811" fill="white"/>
<path d="M8.52207 8.8723H3.53169L3.49219 9.10854C7.37459 10.0484 9.94353 12.3196 11.0102 15.0483L9.92497 9.83064C9.73763 9.11173 9.19434 8.89718 8.52218 8.87207" fill="#F2AE14"/>
</svg>
