<svg width="123" height="16" viewBox="0 0 123 16" fill="none" xmlns="http://www.w3.org/2000/svg">
<path d="M16.0367 15.9984L23.8935 6.13375H33.6432C34.7209 6.13375 34.7068 6.51211 34.1801 7.17144C33.6452 7.84076 32.7354 8.99239 32.1905 9.67228C31.9138 10.0173 31.4141 10.6469 33.0705 10.6469H46.1322C45.0459 12.0221 41.5223 15.9982 35.1954 15.9982L16.0367 15.9984ZM61.033 10.6457L56.7723 15.998H45.5333C45.5333 15.998 49.7916 10.6469 49.7953 10.6469L61.033 10.6457ZM78.2505 9.43521H50.7608L58.2782 0H69.5139L65.2051 5.41016H70.2203L74.5309 0H85.7653L78.2505 9.43521ZM77.2856 10.6471L73.023 15.9984H61.7882C61.7882 15.9984 66.0465 10.6471 66.0501 10.6471H77.2856ZM0 12.7572H16.5572L15.6527 13.8941H0V12.7572ZM0 10.6471H18.2393L17.3331 11.7824H0V10.6471ZM0 14.8685H14.8759L13.9758 15.9984H0V14.8685ZM122.434 13.8941H105.94L106.846 12.7574H122.434V13.8941ZM122.434 15.9984L104.264 16L105.164 14.8685H122.434V15.9984ZM108.525 10.6471H122.434V11.783L107.621 11.784L108.525 10.6471ZM101.325 0L93.8093 9.43501H81.9037C81.9037 9.43501 89.4217 0 89.4256 0H101.325ZM80.9403 10.6471C80.9403 10.6471 80.119 11.6842 79.7204 12.1827C78.3091 13.9452 79.5567 15.9984 84.162 15.9984H102.206L106.468 10.6471H80.9403Z" fill="#D2002E"/>
<path d="M21.5328 0L17.6211 4.91067H38.94C40.0176 4.91067 40.0034 5.28903 39.4766 5.94837C38.9417 6.61768 38.0465 7.78169 37.5017 8.46157C37.2253 8.80661 36.7253 9.43521 38.3819 9.43521H47.1C47.1 9.43521 48.5052 7.66834 49.6829 6.19103C51.2855 4.1817 49.822 0.000199827 44.0932 0.000199827L21.5328 0Z" fill="#D2002E"/>
</svg>
