<svg width="91" height="38" viewBox="0 0 91 38" fill="none" xmlns="http://www.w3.org/2000/svg">
<g clip-path="url(#clip0_2768_6520)">
<path fill-rule="evenodd" clip-rule="evenodd" d="M58.2187 29.9899C56.5717 30.4495 54.4269 30.641 52.5884 30.641C47.8008 30.641 44.6602 28.1514 44.6602 23.5936C44.6602 19.2655 47.6093 16.4695 51.899 16.4695C52.8565 16.4695 53.8906 16.5844 54.5035 16.8908V10.6094H58.2187V29.9899ZM54.5035 20.1081C53.9289 19.84 53.1246 19.6868 52.2054 19.6868C49.9457 19.6868 48.452 21.0657 48.452 23.4787C48.452 26.0448 50.0606 27.5003 52.7033 27.5003C53.1629 27.5003 53.8906 27.5003 54.5035 27.3471V20.1081ZM88.7451 29.9899C87.0981 30.4495 84.9532 30.641 83.0764 30.641C78.327 30.641 75.148 28.1514 75.148 23.5936C75.148 19.2655 78.0972 16.4695 82.387 16.4695C83.3829 16.4695 84.3787 16.5844 84.9915 16.8908V10.6094H88.7451V29.9899ZM84.9915 20.1081C84.417 19.84 83.651 19.6868 82.7317 19.6868C80.4336 19.6868 78.9399 21.0657 78.9399 23.4787C78.9399 26.0448 80.5868 27.5003 83.2297 27.5003C83.6893 27.5003 84.3787 27.5003 84.9915 27.3471V20.1081ZM64.0789 20.1081C64.6917 19.84 65.5726 19.7634 66.3004 19.7634C68.5984 19.7634 70.1688 21.0657 70.1688 23.4021C70.1688 26.1597 68.4069 27.4237 66.0705 27.462V30.641H66.262C71.088 30.641 73.9607 27.9982 73.9607 23.2872C73.9607 18.9974 70.8965 16.4695 66.3769 16.4695C64.0789 16.4695 61.8191 17.0057 60.3253 17.6185V35.8117H64.0789V20.1081Z" fill="#3F3F42"/>
<path fill-rule="evenodd" clip-rule="evenodd" d="M30.9492 7.62207L31.562 8.3115L31.9067 8.11999L30.9492 7.62207Z" fill="#DC0032"/>
<path fill-rule="evenodd" clip-rule="evenodd" d="M30.0273 7.12402L31.2146 8.50288L31.636 8.27307L31.1763 7.73685L30.0273 7.12402Z" fill="#DC0032"/>
<path fill-rule="evenodd" clip-rule="evenodd" d="M29.0703 6.62598L30.8705 8.69426L31.2918 8.46445L30.2577 7.2388L29.0703 6.62598Z" fill="#DC0032"/>
<path fill-rule="evenodd" clip-rule="evenodd" d="M28.1523 6.12842L30.527 8.88613L30.9484 8.65632L29.3014 6.74124L28.1523 6.12842ZM32.7102 10.9927L32.4421 11.1459L32.7102 11.4523V10.9927Z" fill="#DC0032"/>
<path fill-rule="evenodd" clip-rule="evenodd" d="M27.2305 5.63037L30.1797 9.07751L30.601 8.84771L28.3795 6.2432L27.2305 5.63037ZM32.5543 11.0691L32.133 11.3373L32.7075 12.0267V11.299L32.5543 11.0691H32.5543Z" fill="#DC0032"/>
<path fill-rule="evenodd" clip-rule="evenodd" d="M26.2734 5.13232L29.8355 9.2689L30.2951 9.03909L27.4608 5.74515L26.2734 5.13232ZM32.2101 11.2605L31.7888 11.5286L32.7081 12.6011V11.8734L32.2101 11.2605Z" fill="#DC0032"/>
<path fill-rule="evenodd" clip-rule="evenodd" d="M25.3555 4.63428L29.5303 9.46026L29.9517 9.23045L26.5045 5.24709L25.3555 4.63428ZM31.8667 11.4902L31.4454 11.72L32.7093 13.2138V12.486L31.8667 11.4902Z" fill="#DC0032"/>
<path fill-rule="evenodd" clip-rule="evenodd" d="M24.4375 4.13672L29.1869 9.65213L29.6082 9.42232L25.5865 4.74954L24.4375 4.13672ZM31.5232 11.6821L31.1019 11.9119L32.7106 13.7886V13.0609L31.5232 11.6821Z" fill="#DC0032"/>
<path fill-rule="evenodd" clip-rule="evenodd" d="M23.4805 3.63867L28.8426 9.8435L29.264 9.61369L24.6678 4.25149L23.4805 3.63867ZM31.179 11.8734L30.7577 12.1032L32.7111 14.363V13.6353L31.179 11.8734Z" fill="#DC0032"/>
<path fill-rule="evenodd" clip-rule="evenodd" d="M22.5586 3.14062L28.4953 10.0732L28.9166 9.80508L23.7076 3.75345L22.5586 3.14062ZM30.8317 12.0648L30.4104 12.2946L32.7084 14.9757V14.248L30.8317 12.0648Z" fill="#DC0032"/>
<path fill-rule="evenodd" clip-rule="evenodd" d="M21.6016 2.64258L28.1511 10.2646L28.5724 9.99645L22.7889 3.2554L21.6016 2.64258ZM30.5258 12.2562L30.0662 12.486L32.7089 15.5501V14.8224L30.5258 12.2562Z" fill="#DC0032"/>
<path fill-rule="evenodd" clip-rule="evenodd" d="M20.6836 2.14502L27.8076 10.4564L28.2673 10.1883L21.8709 2.75784L20.6836 2.14502ZM30.1823 12.4481L29.761 12.6779L32.7102 16.1633V15.3973L30.1823 12.4481Z" fill="#DC0032"/>
<path fill-rule="evenodd" clip-rule="evenodd" d="M19.7617 1.64697L27.4986 10.6478L27.9199 10.3796L20.9108 2.25979L19.7617 1.64697ZM29.835 12.6394L29.4137 12.8692L32.7076 16.7377V16.01L29.835 12.6394Z" fill="#DC0032"/>
<path fill-rule="evenodd" clip-rule="evenodd" d="M18.8047 1.11084L27.1544 10.8394L27.5757 10.5712L19.992 1.76196L18.8047 1.11084ZM29.4908 12.831L29.0695 13.0608L32.7081 17.3123V16.5846L29.4908 12.831Z" fill="#DC0032"/>
<path fill-rule="evenodd" clip-rule="evenodd" d="M17.8867 0.612793L26.8109 11.0307L27.2323 10.8009L19.0741 1.26391L17.8867 0.612793ZM29.1473 13.0224L28.726 13.2522L32.7093 17.925V17.159L29.1473 13.0224Z" fill="#DC0032"/>
<path fill-rule="evenodd" clip-rule="evenodd" d="M16.9688 0.15332L26.4674 11.2224L26.8888 10.9926L18.1177 0.766142L16.9688 0.15332ZM28.8038 13.2141L28.3825 13.4439L32.7105 18.4996V17.7719L28.8038 13.2141Z" fill="#DC0032"/>
<path fill-rule="evenodd" clip-rule="evenodd" d="M16.3555 0L26.1223 11.4138L26.5436 11.184L17.1981 0.268109L16.9683 0.153205C16.7768 0.0383013 16.5853 0 16.3555 0ZM28.4587 13.4055L28.0374 13.6353L32.7101 19.074V18.3463L28.4587 13.4055Z" fill="#DC0032"/>
<path fill-rule="evenodd" clip-rule="evenodd" d="M16.3541 0C16.2009 0 16.0477 0.0383013 15.8945 0.0766027L25.7762 11.6053L26.2359 11.3755L16.4691 0C16.4308 0 16.3925 0 16.3541 0ZM28.1509 13.597L27.7296 13.8268L32.7088 19.6869V18.9208L28.1509 13.597Z" fill="#DC0032"/>
<path fill-rule="evenodd" clip-rule="evenodd" d="M16.0104 0.0380859C15.9338 0.0763873 15.8189 0.114688 15.7806 0.15299L15.5508 0.267894L25.4708 11.7966L25.8921 11.5668L16.0104 0.0380859ZM27.8072 13.7883L27.3859 14.0564L32.7097 20.2612V19.5334L27.8072 13.7883Z" fill="#DC0032"/>
<path fill-rule="evenodd" clip-rule="evenodd" d="M15.6283 0.191406L15.207 0.421214L25.127 11.9882L25.5484 11.7584L15.6283 0.191406ZM27.4634 13.9799L27.0421 14.248L32.7107 20.8358V20.1081L27.4634 13.9799Z" fill="#DC0032"/>
<path fill-rule="evenodd" clip-rule="evenodd" d="M15.2807 0.382812L14.8594 0.61262L24.7794 12.1796L25.2007 11.9498L15.2807 0.382812ZM27.1158 14.1713L26.6945 14.4394L32.7078 21.4485V20.7208L27.1158 14.1713Z" fill="#DC0032"/>
<path fill-rule="evenodd" clip-rule="evenodd" d="M14.9369 0.574707L14.5156 0.804516L24.4356 12.3715L24.8569 12.1417L14.9369 0.574707ZM26.772 14.3632L26.3507 14.6313L32.7087 22.0234V21.2957L26.772 14.3632Z" fill="#DC0032"/>
<path fill-rule="evenodd" clip-rule="evenodd" d="M14.5932 0.766113L14.1719 0.995923L24.0919 12.5629L24.5132 12.3331L14.5932 0.766113ZM26.4283 14.5546L26.007 14.8227L32.7097 22.5979V21.8701L26.4283 14.5546Z" fill="#DC0032"/>
<path fill-rule="evenodd" clip-rule="evenodd" d="M14.2494 0.95752L13.8281 1.18732L23.7482 12.7543L24.1695 12.5245L14.2494 0.95752ZM26.1228 14.746L25.7015 15.0141L32.7107 23.2106V22.4829L26.1228 14.746Z" fill="#DC0032"/>
<path fill-rule="evenodd" clip-rule="evenodd" d="M13.9018 1.11084L13.4805 1.37895L23.4388 12.9459L23.8601 12.7161L13.9018 1.11084ZM25.7752 14.9759L25.3539 15.2057L32.7077 23.7852V23.0575L25.7752 14.9759Z" fill="#DC0032"/>
<path fill-rule="evenodd" clip-rule="evenodd" d="M13.558 1.30225L13.1367 1.53206L23.0951 13.1373L23.5164 12.9075L13.558 1.30225ZM25.4314 15.1673L25.0101 15.3971L32.7087 24.3979V23.6319L25.4314 15.1673Z" fill="#DC0032"/>
<path fill-rule="evenodd" clip-rule="evenodd" d="M13.2143 1.49365L12.793 1.72346L22.7513 13.3671L23.1726 13.0989L13.2143 1.49365ZM25.0877 15.3587L24.6664 15.5885L32.7096 24.9723V24.2446L25.0877 15.3587Z" fill="#DC0032"/>
<path fill-rule="evenodd" clip-rule="evenodd" d="M12.8705 1.68506L12.4492 1.91486L22.4076 13.5585L22.8289 13.2903L12.8705 1.68506ZM24.7439 15.5501L24.3226 15.78L32.7106 25.5468V24.819L24.7439 15.5501Z" fill="#DC0032"/>
<path fill-rule="evenodd" clip-rule="evenodd" d="M12.5229 1.87695L12.1016 2.10676L22.0599 13.7504L22.4812 13.4822L12.5229 1.87695ZM24.3963 15.742L23.975 15.9719L32.7077 26.16V25.3939L24.3963 15.742Z" fill="#DC0032"/>
<path fill-rule="evenodd" clip-rule="evenodd" d="M12.1791 2.06836L11.7578 2.29817L21.7162 13.9418L22.1375 13.6737L12.1791 2.06836ZM24.0909 15.9334L23.6696 16.1633L32.7086 26.7344V26.0067L24.0909 15.9334Z" fill="#DC0032"/>
<path fill-rule="evenodd" clip-rule="evenodd" d="M11.8346 2.22168L11.375 2.45148L21.41 14.1334L21.8313 13.8653L11.8346 2.22168ZM23.7464 16.1251L23.325 16.3549L32.7088 27.309V26.5813L23.7464 16.1251Z" fill="#DC0032"/>
<path fill-rule="evenodd" clip-rule="evenodd" d="M11.4909 2.41309L11.0312 2.64289L21.1045 14.3631C21.1428 14.2865 21.1811 14.2482 21.2577 14.2099L21.4875 14.0567L11.4909 2.41309L11.4909 2.41309ZM23.4026 16.3165L22.9813 16.5463L32.6332 27.8069C32.6715 27.6919 32.7098 27.577 32.7098 27.4621V27.1557L23.4026 16.3165H23.4026Z" fill="#DC0032"/>
<path fill-rule="evenodd" clip-rule="evenodd" d="M11.1471 2.60449L10.6875 2.8343L20.9906 14.8226V14.6694C20.9906 14.5545 21.0672 14.4013 21.1438 14.2864L11.1471 2.60449ZM23.0589 16.5079L22.7525 16.6994C22.7141 16.6994 22.6759 16.7377 22.6375 16.7377L32.4427 28.1898C32.5576 28.0366 32.6342 27.8834 32.6725 27.7302L23.0589 16.5079Z" fill="#DC0032"/>
<path fill-rule="evenodd" clip-rule="evenodd" d="M10.7994 2.7959L10.3398 3.02571L20.9876 15.4353V14.6693L10.7994 2.7959ZM21.9834 16.5461L32.1715 28.4578C32.2865 28.3812 32.4014 28.228 32.5163 28.1131L22.7112 16.6993C22.5579 16.7759 22.3281 16.7759 22.1749 16.6993L21.9834 16.5461Z" fill="#DC0032"/>
<path fill-rule="evenodd" clip-rule="evenodd" d="M10.4557 2.9873L9.99609 3.21711L31.8278 28.6492L32.1342 28.496C32.1725 28.4577 32.2108 28.4194 32.2491 28.3811L22.2142 16.6992H22.1759L21.295 16.163C21.2184 16.1247 21.1801 16.0481 21.1035 15.9715C21.0269 15.8566 21.0269 15.78 20.9885 15.7034V15.282L10.4557 2.9873Z" fill="#DC0032"/>
<path fill-rule="evenodd" clip-rule="evenodd" d="M10.112 3.1792L9.65234 3.40901L31.484 28.8411L31.9054 28.6113L10.112 3.1792Z" fill="#DC0032"/>
<path fill-rule="evenodd" clip-rule="evenodd" d="M9.76821 3.33203L9.30859 3.56184L31.1786 29.0322L31.5999 28.8024L9.76821 3.33203Z" fill="#DC0032"/>
<path fill-rule="evenodd" clip-rule="evenodd" d="M9.42056 3.52393L8.96094 3.75374L30.831 29.2241L31.2523 28.9943L9.42056 3.52393Z" fill="#DC0032"/>
<path fill-rule="evenodd" clip-rule="evenodd" d="M9.07681 3.71533L8.61719 3.94514L30.4872 29.4155L30.9086 29.1857L9.07681 3.71533Z" fill="#DC0032"/>
<path fill-rule="evenodd" clip-rule="evenodd" d="M8.69476 3.90674L8.27344 4.13655L30.1435 29.6452L30.5648 29.3771L8.69476 3.90674Z" fill="#DC0032"/>
<path fill-rule="evenodd" clip-rule="evenodd" d="M8.35101 4.09814L7.92969 4.32795L29.7997 29.8366L30.2211 29.5685L8.35101 4.09814Z" fill="#DC0032"/>
<path fill-rule="evenodd" clip-rule="evenodd" d="M8.00335 4.28955L7.58203 4.51935L29.4904 30.028L29.9117 29.7599L8.00335 4.28955Z" fill="#DC0032"/>
<path fill-rule="evenodd" clip-rule="evenodd" d="M7.6596 4.44287L7.23828 4.67268L29.1466 30.2197L29.568 29.9516L7.6596 4.44287Z" fill="#DC0032"/>
<path fill-rule="evenodd" clip-rule="evenodd" d="M7.31585 4.63428L6.89453 4.86409L28.8029 30.4111L29.2242 30.1813L7.31585 4.63428Z" fill="#DC0032"/>
<path fill-rule="evenodd" clip-rule="evenodd" d="M6.9721 4.82617L6.55078 5.05598L17.1986 17.4656L17.5432 17.6954C17.6964 17.772 17.8496 17.9635 17.8496 18.155V18.1933L28.4591 30.603L28.8805 30.3732L6.9721 4.82617Z" fill="#DC0032"/>
<path fill-rule="evenodd" clip-rule="evenodd" d="M6.62444 5.01758L6.20312 5.24737L16.1998 16.9293L17.4637 17.6187L6.62444 5.01758ZM17.8084 18.04C17.8084 18.0783 17.8467 18.1166 17.8467 18.1549V18.806L28.1115 30.7944L28.5328 30.5646L17.8084 18.04Z" fill="#DC0032"/>
<path fill-rule="evenodd" clip-rule="evenodd" d="M6.28069 5.20898L5.85938 5.43879L15.2049 16.3547L16.4689 17.0441L6.28069 5.20898ZM17.8477 18.6527V19.3805L27.806 30.9858L28.2274 30.756L17.8477 18.6527Z" fill="#DC0032"/>
<path fill-rule="evenodd" clip-rule="evenodd" d="M5.93694 5.40039L5.51562 5.6302L14.2483 15.7801L15.474 16.4695L5.93694 5.40039ZM17.8486 19.2272V19.9932L27.4623 31.1772L27.8836 30.9474L17.8486 19.2272Z" fill="#DC0032"/>
<path fill-rule="evenodd" clip-rule="evenodd" d="M5.59319 5.55371L5.17188 5.78352L13.2535 15.2057L14.4791 15.9334L5.59319 5.55371ZM17.8496 19.8401V20.5678L27.1185 31.3688L27.5398 31.139L17.8496 19.8401Z" fill="#DC0032"/>
<path fill-rule="evenodd" clip-rule="evenodd" d="M5.24552 5.74512L4.82422 5.97493L12.2547 14.631L13.4803 15.3588L5.24552 5.74512ZM17.8466 20.4145V21.1423L26.7709 31.5602L27.1922 31.3304L17.8466 20.4145Z" fill="#DC0032"/>
<path fill-rule="evenodd" clip-rule="evenodd" d="M4.90178 5.93652L4.48047 6.16633L11.2598 14.0947L12.4854 14.7841L4.90178 5.93652ZM17.8476 20.9889V21.755L26.4271 31.7899L26.8484 31.5218L17.8476 20.9889Z" fill="#DC0032"/>
<path fill-rule="evenodd" clip-rule="evenodd" d="M4.55803 6.12842L4.13672 6.35823L10.265 13.5206L11.4906 14.21L4.55803 6.12842ZM17.8486 21.6022V22.3299L26.1217 31.9818L26.543 31.7137L17.8486 21.6022Z" fill="#DC0032"/>
<path fill-rule="evenodd" clip-rule="evenodd" d="M4.21428 6.31982L3.79297 6.54963L9.27007 12.9459L10.534 13.6354L4.21428 6.31982ZM17.8495 22.1766V22.9043L25.7779 32.1732L26.1992 31.9051L17.8495 22.1766Z" fill="#DC0032"/>
<path fill-rule="evenodd" clip-rule="evenodd" d="M3.86663 6.51123L3.44531 6.74104L8.27129 12.3713L9.53524 13.0991L3.86663 6.51123ZM13.9016 18.9208L14.8974 20.0699V19.6486C14.8974 19.572 14.8208 19.4571 14.7442 19.4188L13.9016 18.9208ZM17.8466 22.751V23.517L25.4302 32.3646L25.8516 32.0965L17.8466 22.751Z" fill="#DB0032"/>
<path fill-rule="evenodd" clip-rule="evenodd" d="M3.52287 6.66455L3.10156 6.89436L7.27641 11.7969L8.54036 12.5246L3.52287 6.66455ZM12.9067 18.3464L14.8984 20.6445V19.9168L14.1706 19.0742L12.9067 18.3464ZM17.8475 23.3639V24.0917L25.0865 32.5562L25.5078 32.3264L17.8475 23.3639Z" fill="#DC0032"/>
<path fill-rule="evenodd" clip-rule="evenodd" d="M3.17912 6.85596L2.75781 7.08577L6.31983 11.2606L7.54548 11.95L3.17912 6.85596ZM11.9118 17.8101L14.8993 21.2573V20.5295L13.1758 18.4995L11.9118 17.8101ZM17.8485 23.9384V24.666L24.7427 32.7476L25.1641 32.5178L17.8485 23.9384Z" fill="#DC0032"/>
<path fill-rule="evenodd" clip-rule="evenodd" d="M2.83537 7.04736L2.41406 7.27717L5.32495 10.686L6.5506 11.3754L2.83537 7.04736ZM10.9552 17.2355L14.9003 21.8317V21.1039L12.1809 17.9249L10.9552 17.2355ZM17.8495 24.551V25.2788L24.4373 32.939L24.8586 32.7092L17.8495 24.551Z" fill="#DC0032"/>
<path fill-rule="evenodd" clip-rule="evenodd" d="M2.48772 7.23877L2.06641 7.46858L4.32618 10.1114L5.55181 10.8008L2.48772 7.23877ZM9.9565 16.6609L14.8974 22.4061V21.6784L11.1821 17.3886L9.9565 16.6609ZM17.8465 25.1255V25.8532L24.0897 33.1304L24.5109 32.9006L17.8465 25.1255Z" fill="#DC0032"/>
<path fill-rule="evenodd" clip-rule="evenodd" d="M2.14397 7.43066L1.72266 7.66047L3.33131 9.53725L4.55695 10.265L2.14397 7.43066ZM8.96162 16.0868L14.8983 23.0193V22.2916L10.1873 16.8145L8.96162 16.0868ZM17.8475 25.7004V26.4281L23.7459 33.3223L24.1672 33.0925L17.8475 25.7004Z" fill="#DC0032"/>
<path fill-rule="evenodd" clip-rule="evenodd" d="M1.80022 7.62207L1.37891 7.85188L2.33644 8.96263L3.60038 9.69036L1.80022 7.62207ZM7.96674 15.5504L14.8993 23.5937V22.866L9.19239 16.2399L7.96674 15.5504ZM17.8484 26.3131V27.0408L23.4022 33.5137L23.8235 33.2839L17.8484 26.3131Z" fill="#DC0032"/>
<path fill-rule="evenodd" clip-rule="evenodd" d="M1.45571 7.77539L0.996094 8.0052L1.3408 8.42652L2.60475 9.11595L1.45571 7.77539ZM6.9711 14.976L14.8995 24.2066V23.4406L8.23505 15.6655L6.9711 14.976ZM17.8486 26.8877V27.6155L23.0577 33.7437L23.479 33.4755L17.8486 26.8877Z" fill="#DC0032"/>
<path fill-rule="evenodd" clip-rule="evenodd" d="M1.11186 7.9668L0.84375 8.12L1.60978 8.54132L1.11186 7.9668V7.9668ZM5.97612 14.4014L14.9003 24.781V24.0534L7.24007 15.1291L5.97612 14.4014ZM17.8495 27.4622V28.2282L22.7521 33.9351L23.1734 33.667L17.8495 27.4622Z" fill="#DC0032"/>
<path fill-rule="evenodd" clip-rule="evenodd" d="M5.01562 13.8267L14.8974 25.3553V24.6276L6.24126 14.5544L5.01562 13.8267ZM17.8465 28.0747V28.8025L22.4044 34.1264L22.8257 33.8582L17.8465 28.0747Z" fill="#DC0032"/>
<path fill-rule="evenodd" clip-rule="evenodd" d="M4.02344 13.2905L14.901 25.9682V25.2022L5.24907 13.98L4.02344 13.2905ZM17.8502 28.6494V29.3771L22.0634 34.3179L22.4847 34.0498L17.8502 28.6494Z" fill="#DC0032"/>
<path fill-rule="evenodd" clip-rule="evenodd" d="M3.02734 12.7158L14.9008 26.5426V25.8149L4.25298 13.4052L3.02734 12.7158ZM17.8499 29.2237V29.9897L21.7184 34.5093L22.1397 34.2795L17.8499 29.2237Z" fill="#DC0032"/>
<path fill-rule="evenodd" clip-rule="evenodd" d="M2.03125 12.1416L14.9005 27.1174V26.3897L3.25689 12.8693L2.03125 12.1416ZM17.8497 29.8368V30.5646L21.3734 34.7011L21.7947 34.4713L17.8497 29.8368Z" fill="#DB0032"/>
<path fill-rule="evenodd" clip-rule="evenodd" d="M1.03516 11.5669L14.9002 27.7301V27.0023L2.2608 12.2946L1.03516 11.5669ZM17.8494 30.4112V31.1389L21.0667 34.8924L21.4881 34.6626L17.8494 30.4112Z" fill="#DA0032"/>
<path fill-rule="evenodd" clip-rule="evenodd" d="M0.0390625 11.0308L14.9 28.3047V27.5769L1.30301 11.7202L0.0390625 11.0308ZM17.8492 30.9858V31.7518L20.7218 35.084L21.1431 34.8542L17.8492 30.9858Z" fill="#D90032"/>
<path fill-rule="evenodd" clip-rule="evenodd" d="M0 10.9927V11.5289L14.8992 28.8794V28.1517L0.306411 11.1459L0 10.9927ZM17.8484 31.5988V32.0584C17.8484 32.135 17.8101 32.2116 17.7718 32.2499L20.3763 35.2757L20.7976 35.0459L17.8484 31.5988Z" fill="#D80032"/>
<path fill-rule="evenodd" clip-rule="evenodd" d="M0 11.3755V12.1415L14.8992 29.492V28.7643L0 11.3755ZM17.8101 32.1731C17.7718 32.3263 17.6569 32.4795 17.542 32.5178L17.5037 32.5561L20.0316 35.467L20.4529 35.2372L17.8101 32.1731L17.8101 32.1731Z" fill="#D70032"/>
<path fill-rule="evenodd" clip-rule="evenodd" d="M0 11.9883V12.716L14.8992 30.0665V29.3388L0 11.9883ZM17.5803 32.4795C17.5803 32.5178 17.5803 32.5178 17.542 32.5178L17.159 32.7476L19.6869 35.6585L20.1082 35.4287L17.5803 32.4795L17.5803 32.4795Z" fill="#D60032"/>
<path fill-rule="evenodd" clip-rule="evenodd" d="M0 12.563V13.2907L14.8992 30.6412V29.9135L0 12.563ZM17.2739 32.6712L16.8143 32.9393L19.3805 35.8885L19.8018 35.6204L17.2739 32.6712Z" fill="#D50032"/>
<path fill-rule="evenodd" clip-rule="evenodd" d="M0 13.1758V13.9035L14.8992 31.254V30.5263L0 13.1758ZM16.9292 32.8626L16.6611 33.0159C16.5845 33.0542 16.5079 33.0542 16.4313 33.0542L19.0357 36.08L19.4571 35.8119L16.9292 32.8627V32.8626Z" fill="#D40032"/>
<path fill-rule="evenodd" clip-rule="evenodd" d="M0 13.75V14.4777L14.8992 31.8282V31.1005L0 13.75ZM15.7419 32.8623L18.691 36.2712L19.1123 36.0031L16.5462 33.0538C16.5079 33.0538 16.4313 33.0922 16.393 33.0922H16.3547C16.2398 33.0922 16.1632 33.0538 16.0866 33.0156L15.7418 32.8623L15.7419 32.8623Z" fill="#D30032"/>
<path fill-rule="evenodd" clip-rule="evenodd" d="M0 14.3247V15.0907L18.3463 36.4629L18.7676 36.1948L16.01 32.9774L15.1673 32.5178C15.0141 32.4412 14.8992 32.2497 14.8992 32.0582V31.6752L0 14.3247Z" fill="#D20032"/>
<path fill-rule="evenodd" clip-rule="evenodd" d="M0 14.9375V15.6652L18.0016 36.6543L18.4229 36.4245L0 14.9375Z" fill="#D10032"/>
<path fill-rule="evenodd" clip-rule="evenodd" d="M0 15.5122V16.2399L17.6569 36.846L18.0782 36.6162L0 15.5122Z" fill="#D00032"/>
<path fill-rule="evenodd" clip-rule="evenodd" d="M0 16.0864V16.8525L17.3505 37.0372L17.7718 36.8074L0 16.0864Z" fill="#CF0032"/>
<path fill-rule="evenodd" clip-rule="evenodd" d="M0 16.6992V17.4269L17.0058 37.2287L17.4271 36.9989L0 16.6992Z" fill="#CE0032"/>
<path fill-rule="evenodd" clip-rule="evenodd" d="M0 17.2739V18.0017L16.6228 37.3822C16.7377 37.3439 16.8526 37.3056 16.9675 37.2673L17.0824 37.1907L0 17.2739Z" fill="#CD0032"/>
<path fill-rule="evenodd" clip-rule="evenodd" d="M0 17.8481V18.6142L16.1249 37.3819C16.2015 37.3819 16.2781 37.3819 16.3547 37.3819C16.4696 37.3819 16.5845 37.3819 16.6994 37.3435L0 17.8481Z" fill="#CC0032"/>
<path fill-rule="evenodd" clip-rule="evenodd" d="M0 18.4614V19.1892L15.2439 36.961L15.7802 37.2674C15.8951 37.344 16.0866 37.3823 16.2398 37.3823L0 18.4614Z" fill="#CB0032"/>
<path fill-rule="evenodd" clip-rule="evenodd" d="M0 19.0356V19.7634L14.2481 36.3862L15.512 37.1139L0 19.0356Z" fill="#CA0032"/>
<path fill-rule="evenodd" clip-rule="evenodd" d="M0 19.6484V20.3762L13.2522 35.8116L14.5162 36.5393L0 19.6484Z" fill="#C90032"/>
<path fill-rule="evenodd" clip-rule="evenodd" d="M0 20.2231V20.9509L12.2564 35.2373L13.4821 35.965L0 20.2231Z" fill="#C80033"/>
<path fill-rule="evenodd" clip-rule="evenodd" d="M0 20.7979V21.5256L11.2606 34.6629L12.4862 35.3907L0 20.7979Z" fill="#C70033"/>
<path fill-rule="evenodd" clip-rule="evenodd" d="M0 21.4106V22.1384L10.2265 34.0501L11.4904 34.7778L0 21.4106Z" fill="#C60033"/>
<path fill-rule="evenodd" clip-rule="evenodd" d="M0 21.9849V22.7126L9.23063 33.4752L10.4945 34.203L0 21.9849Z" fill="#C50033"/>
<path fill-rule="evenodd" clip-rule="evenodd" d="M0 22.5596V23.2873L8.23479 32.9009L9.49874 33.6286L0 22.5596Z" fill="#C40033"/>
<path fill-rule="evenodd" clip-rule="evenodd" d="M0 23.1724V23.9001L7.23895 32.3263L8.5029 33.0541L0 23.1724Z" fill="#C30033"/>
<path fill-rule="evenodd" clip-rule="evenodd" d="M0 23.7471V24.4747L6.24311 31.752L7.50706 32.4797L0 23.7471Z" fill="#C20033"/>
<path fill-rule="evenodd" clip-rule="evenodd" d="M0 24.3213V25.0873L5.24727 31.1772L6.47292 31.905L0 24.3213Z" fill="#C10033"/>
<path fill-rule="evenodd" clip-rule="evenodd" d="M0 24.9341V25.6618L4.21314 30.6027L5.47708 31.3304L0 24.9341Z" fill="#C00033"/>
<path fill-rule="evenodd" clip-rule="evenodd" d="M0 25.5088V26.2365L3.21731 30.0284L4.48126 30.7178L0 25.5088Z" fill="#BF0033"/>
<path fill-rule="evenodd" clip-rule="evenodd" d="M0 26.083V26.849L2.22148 29.4152L3.48542 30.143L0 26.083Z" fill="#BE0033"/>
<path fill-rule="evenodd" clip-rule="evenodd" d="M0 26.6958V27.4235L1.22564 28.8407L2.48958 29.5684L0 26.6958Z" fill="#BD0033"/>
<path fill-rule="evenodd" clip-rule="evenodd" d="M0 27.2705V27.462C0 27.845 0.268109 28.3047 0.574519 28.4962L1.49375 28.9941L0 27.2705Z" fill="#BC0033"/>
<path fill-rule="evenodd" clip-rule="evenodd" d="M0.230469 28.1514C0.307071 28.228 0.345372 28.3046 0.421975 28.3429L0.230469 28.1514Z" fill="#BB0033"/>
</g>
<defs>
<clipPath id="clip0_2768_6520">
<rect width="90.4762" height="38" fill="white"/>
</clipPath>
</defs>
</svg>
