<svg width="102" height="28" viewBox="0 0 102 28" fill="none" xmlns="http://www.w3.org/2000/svg">
<g clip-path="url(#clip0_2768_6514)">
<path d="M100.387 24.3588C100.387 22.8027 99.2838 21.6632 97.7637 21.6632C96.246 21.6632 95.1412 22.8027 95.1412 24.3588C95.1412 25.9125 96.246 27.0501 97.7637 27.0501C99.2838 27.0501 100.387 25.9106 100.387 24.3588ZM97.0743 24.4971V26.2578H96.5055V22.3753H97.919C98.7472 22.3753 99.1273 22.737 99.1273 23.4422C99.1273 23.8765 98.8337 24.2206 98.4556 24.2704V24.2869C98.7839 24.3393 98.9044 24.6322 98.972 25.1682C99.0238 25.5154 99.0926 26.1176 99.2163 26.259H98.5433C98.3868 25.8942 98.4025 25.3777 98.282 24.9453C98.1822 24.6164 98.0067 24.4965 97.6298 24.4965H97.0774V24.4983L97.0743 24.4971ZM97.7795 23.9952C98.3318 23.9952 98.4897 23.701 98.4897 23.4416C98.4897 23.1347 98.3318 22.8923 97.7795 22.8923H97.0743V23.9965H97.7795V23.9952ZM94.5156 24.3588C94.5156 22.4416 96.0377 21.1455 97.7611 21.1455C99.4897 21.1455 101.01 22.4416 101.01 24.3588C101.01 26.2723 99.4903 27.5696 97.7611 27.5696C96.0377 27.5696 94.5156 26.2723 94.5156 24.3588Z" fill="#FF5A00"/>
<path d="M83.2679 27.01L79.5262 22.8137L75.8173 27.01H68.0132L75.6406 18.4407L68.0132 9.86888H76.061L79.8406 14.0329L83.4775 9.86888H91.2438L83.6543 18.4047L91.3492 27.01H83.2679ZM53.0273 27.01V0.00732422H68.0132V6.02615H59.3751V9.86888H68.0132V15.6604H59.3751V20.976H68.0132V27.01H53.0273Z" fill="#FF5A00"/>
<path d="M46.7037 0.00732422V11.0583H46.6336C45.234 9.4497 43.4847 8.8891 41.4563 8.8891C37.2998 8.8891 34.1685 11.7167 33.0695 15.4521C31.8157 11.3354 28.5828 8.81209 23.79 8.81209C19.8967 8.81209 16.8235 10.5589 15.2181 13.4061V9.86825H7.17221V6.02678H15.9536V0.00858854H0V27.01H7.17221V15.6604H14.3211C14.1009 16.5332 13.9908 17.4301 13.9934 18.3302C13.9934 23.9602 18.2957 27.9165 23.7887 27.9165C28.406 27.9165 31.4514 25.7467 33.0606 21.7967H26.9136C26.0828 22.9854 25.4515 23.3364 23.7893 23.3364C21.8626 23.3364 20.1997 21.6546 20.1997 19.6635H32.7159C33.2588 24.1363 36.7436 27.9929 41.5264 27.9929C43.5895 27.9929 45.4783 26.9784 46.633 25.2644H46.7024V27.0138H53.0262V0.00858854H46.7037V0.00732422ZM20.3992 15.7412C20.7989 14.0254 22.129 12.9042 23.7893 12.9042C25.6176 12.9042 26.8802 13.9907 27.2116 15.7412H20.3992ZM42.866 22.9008C40.5359 22.9008 39.0877 20.7298 39.0877 18.4622C39.0877 16.038 40.3477 13.7091 42.866 13.7091C45.4789 13.7091 46.52 16.0392 46.52 18.4622C46.52 20.7588 45.4177 22.9008 42.866 22.9008Z" fill="#29007C"/>
</g>
<defs>
<clipPath id="clip0_2768_6514">
<rect width="101.01" height="28" fill="white"/>
</clipPath>
</defs>
</svg>
