<svg width="79" height="27" viewBox="0 0 79 27" fill="none" xmlns="http://www.w3.org/2000/svg">
<path d="M78.4531 22.3035C78.4531 22.2091 78.4531 22.1146 78.4531 22.0296C78.4626 22.0201 78.4626 22.0296 78.472 22.0296C78.472 22.1241 78.472 22.2091 78.472 22.3035C78.472 22.313 78.4626 22.313 78.4531 22.3035Z" fill="#FDDB3F"/>
<path d="M78.472 22.0294C78.4626 22.0294 78.4626 22.0294 78.4531 22.0294C78.4531 21.9633 78.4531 21.8972 78.4531 21.8311C78.4626 21.8311 78.4626 21.8311 78.472 21.8311C78.472 21.8972 78.472 21.9633 78.472 22.0294Z" fill="#FDEB94"/>
<path d="M78.4546 22.3037C78.464 22.3037 78.464 22.3037 78.4735 22.3037C78.4735 22.3604 78.4735 22.4076 78.4735 22.4643C78.4357 22.4171 78.464 22.3604 78.4546 22.3037Z" fill="#FEE679"/>
<path d="M16.2483 0.0377868C17.5709 0.103914 18.865 0.283401 20.1687 0.529015C20.8677 0.661269 21.5668 0.812416 22.247 1.03914C22.3509 1.07692 22.4548 1.12416 22.5587 1.1525C22.6532 1.18084 22.6815 1.22807 22.6815 1.33198C22.6815 3.44804 22.6815 5.57355 22.6815 7.68961C22.6815 7.81242 22.6815 7.93522 22.6815 8.06748C22.2848 7.95412 21.8974 7.84076 21.5101 7.7274C20.2726 7.37787 19.0067 7.09447 17.7314 6.92443C16.5601 6.76383 15.3792 6.7166 14.1984 6.87719C13.1781 7.00945 12.2051 7.2834 11.3266 7.83131C10.2213 8.52092 9.51282 9.51282 9.09717 10.7314C8.83266 11.525 8.70985 12.3468 8.68151 13.1876C8.65317 13.9339 8.68151 14.6802 8.79487 15.4265C8.93657 16.305 9.19163 17.1458 9.69231 17.892C10.3536 18.865 11.2888 19.4224 12.413 19.6775C13.027 19.8192 13.6505 19.8947 14.274 19.8286C15.4453 19.7153 16.475 19.2807 17.2497 18.3455C17.2875 18.3077 17.3158 18.2605 17.3441 18.2132C17.3536 18.2038 17.3536 18.1943 17.3536 18.1849C17.3158 18.166 17.2686 18.1754 17.2308 18.1754C15.7382 18.1754 14.2362 18.1754 12.7436 18.1754C12.6397 18.1754 12.6019 18.1565 12.6019 18.0432C12.6019 16.2105 12.6019 14.3873 12.6019 12.5547C12.6019 12.4507 12.6302 12.4224 12.7341 12.4224C16.919 12.4224 21.0945 12.4224 25.2794 12.4224C25.3833 12.4224 25.4116 12.4507 25.4116 12.5547C25.4116 17.0702 25.4116 21.5951 25.4116 26.1107C25.4116 26.2051 25.3927 26.2335 25.2888 26.2335C23.5978 26.2335 21.9069 26.2335 20.2065 26.2335C20.0931 26.2335 20.0742 26.1957 20.0742 26.0918C20.0837 24.9015 20.0931 23.7112 20.1026 22.5209C20.1026 22.4831 20.1026 22.4359 20.0837 22.3887C20.0459 22.4548 20.0175 22.5209 19.9798 22.587C19.4507 23.5695 18.6761 24.3252 17.7692 24.9393C16.5412 25.7611 15.1903 26.2618 13.7355 26.5074C13.3104 26.5736 12.8947 26.6208 12.4602 26.6397C12.413 26.6586 12.3657 26.6397 12.3185 26.6491C12.224 26.6491 12.1296 26.6491 12.0351 26.6491C11.9784 26.6491 11.9217 26.6491 11.8745 26.6491C11.7611 26.6491 11.6383 26.6491 11.525 26.6491C11.4683 26.6491 11.4116 26.6491 11.3455 26.6491C10.193 26.6491 9.06883 26.4602 7.96356 26.139C7.34008 25.9595 6.73549 25.7233 6.1498 25.4305C5.35628 25.0337 4.61943 24.5331 3.94872 23.9379C3.22132 23.2861 2.56005 22.5587 2.02159 21.7368C1.39811 20.7922 0.935223 19.7719 0.604588 18.6856C0.406208 18.0148 0.245614 17.3252 0.151147 16.6262C0.0755736 16.1161 0.00944673 15.6059 0.00944673 15.0864C0.00944673 14.9352 0 14.7841 0 14.6329C0 14.5762 0 14.5196 0 14.4534C0 14.3401 0 14.2362 0 14.1228C0 14 0 13.8677 0 13.7449C0 13.641 0 13.5371 0 13.4332C0 13.3765 0 13.3198 0 13.2537C0 11.9312 0.217274 10.637 0.595142 9.37112C0.812416 8.65317 1.08637 7.95412 1.42645 7.2834C1.87045 6.40486 2.4278 5.583 3.07962 4.83671C3.8448 3.94872 4.72335 3.18354 5.69636 2.53171C6.63158 1.89879 7.64238 1.40756 8.70041 1.02024C9.88124 0.585695 11.0999 0.311741 12.3468 0.151147C12.9703 0.0661269 13.6032 0.00944668 14.2267 0.00944668C14.274 0.00944668 14.3117 0.00944668 14.359 0.00944668C14.4157 0.00944668 14.4723 0.00944668 14.529 0.00944668C14.5951 -9.14984e-09 14.6707 0.0188934 14.7368 0C15.0769 0 15.417 0 15.7571 0C15.8232 0.0283401 15.8988 0.00944668 15.9649 0.00944668C16.0121 0.00944668 16.0594 0.00944668 16.0972 0.00944668C16.1538 0.0377868 16.2011 0.0188934 16.2483 0.0377868Z" fill="#061AB1"/>
<path d="M55.5378 26.6586C54.8198 26.6397 54.1019 26.6019 53.3934 26.5452C52.4298 26.4696 51.4757 26.3563 50.5216 26.1957C49.6903 26.054 48.8684 25.8839 48.0654 25.6383C47.971 25.61 47.9426 25.5722 47.9426 25.4683C47.9426 23.2105 47.9426 20.9527 47.9426 18.695C47.9426 18.5533 47.9426 18.5533 48.0749 18.5911C49.1613 18.9312 50.276 19.1862 51.4001 19.4035C52.2598 19.5735 53.1289 19.7152 53.998 19.8286C54.6876 19.9136 55.3866 19.9703 56.0857 19.9892C56.7092 20.0081 57.3327 19.9797 57.9467 19.8664C58.2962 19.8003 58.6363 19.6963 58.9386 19.498C59.3542 19.2334 59.5337 18.8367 59.4487 18.3832C59.4109 18.166 59.2787 18.0148 59.0992 17.9015C58.8063 17.7125 58.4852 17.6086 58.1545 17.533C57.1248 17.2969 56.0951 17.0607 55.0654 16.834C53.9318 16.5884 52.8266 16.2672 51.7686 15.7665C50.6349 15.2281 49.6336 14.5101 48.8873 13.4899C48.2733 12.6491 47.9049 11.7044 47.7159 10.6842C47.612 10.1268 47.5742 9.56948 47.5742 9.00268C47.5742 7.47232 47.8482 6.00808 48.5945 4.6572C49.3785 3.2213 50.5216 2.15383 51.9669 1.38864C53.025 0.831289 54.1491 0.481762 55.3205 0.273934C56.0007 0.151127 56.6903 0.0850005 57.3799 0.0472137C57.4271 0.0283203 57.4744 0.0472137 57.5121 0.037767C57.5594 0.037767 57.6161 0.037767 57.6633 0.037767C57.7294 0.0283203 57.7861 0.0472137 57.8522 0.0283203C58.1734 0.0283203 58.4852 0.0283203 58.8063 0.0283203C58.8725 0.0566604 58.948 0.037767 59.0142 0.037767C59.0614 0.037767 59.1181 0.037767 59.1653 0.037767C59.2125 0.037767 59.2503 0.037767 59.2976 0.037767C59.9022 0.037767 60.5067 0.0850005 61.1019 0.151127C62.141 0.255041 63.1802 0.387295 64.2099 0.566782C64.8617 0.680142 65.5135 0.802949 66.1653 0.963543C66.3542 1.01078 66.3542 1.02022 66.3542 1.20916C66.3542 3.33466 66.3542 5.46017 66.3542 7.58568C66.3542 7.59512 66.3542 7.60457 66.3542 7.62346C66.3542 7.78406 66.3354 7.7935 66.1748 7.75572C65.419 7.56678 64.6633 7.39674 63.8981 7.25504C63.0385 7.09445 62.1788 6.9433 61.3192 6.82994C60.724 6.75437 60.1289 6.68824 59.5243 6.64101C59.0047 6.60322 58.4757 6.60322 57.9467 6.62211C57.3988 6.64101 56.8603 6.72603 56.3691 6.99053C56.0574 7.16057 55.8117 7.39674 55.7362 7.75572C55.6511 8.14303 55.8023 8.46422 56.1518 8.69094C56.4069 8.86098 56.6903 8.96489 56.9831 9.04047C57.8333 9.25774 58.6835 9.44667 59.5432 9.6545C60.3273 9.84344 61.1208 10.0135 61.886 10.2685C62.9818 10.637 64.0304 11.1093 64.9561 11.8272C65.948 12.5924 66.6943 13.556 67.1289 14.7368C67.3839 15.4359 67.5351 16.1633 67.6012 16.9096C67.6484 17.4764 67.6579 18.0432 67.6201 18.61C67.5067 20.1309 67.0627 21.5384 66.1559 22.776C65.608 23.5317 64.9372 24.1552 64.1815 24.6936C63.1329 25.421 61.971 25.9028 60.7429 26.224C60.0439 26.4035 59.3354 26.5263 58.6269 26.6019C58.1356 26.6585 57.6444 26.6774 57.1626 26.6774C57.0965 26.6774 57.0304 26.6774 56.9642 26.6774C56.832 26.6774 56.6997 26.6774 56.5675 26.6774C56.4825 26.6774 56.3974 26.6774 56.3124 26.6774C56.1424 26.6774 55.9723 26.6774 55.8023 26.6774C55.7078 26.6585 55.6228 26.6774 55.5378 26.6586Z" fill="#061AB1"/>
<path d="M78.4731 22.5303C78.4164 22.6815 78.4164 22.8515 78.388 23.0121C78.218 23.8434 77.859 24.5614 77.2733 25.1754C76.5743 25.9217 75.7146 26.3751 74.7038 26.5074C73.3057 26.6963 72.0777 26.2996 71.048 25.3266C70.3489 24.6653 69.9144 23.8434 69.7632 22.8893C69.5554 21.5479 69.886 20.3387 70.7646 19.309C71.4447 18.5155 72.3044 18.0054 73.3435 17.8542C75.025 17.5992 76.4326 18.1282 77.519 19.4413C78.0858 20.1309 78.388 20.9338 78.4636 21.8218C78.4825 21.888 78.4636 21.9541 78.4731 22.0297C78.4731 22.1147 78.4731 22.1997 78.4731 22.2942C78.4825 22.3508 78.4636 22.4075 78.4825 22.4642C78.4731 22.4831 78.4731 22.5114 78.4731 22.5303Z" fill="#FFD101"/>
<path d="M28.029 13.3386C28.029 9.08757 28.029 4.82711 28.029 0.576101C28.029 0.462741 28.0573 0.443848 28.1612 0.443848C30.8252 0.443848 33.4986 0.443848 36.1626 0.443848C36.2665 0.443848 36.2854 0.472188 36.2854 0.576101C36.2854 6.83926 36.2854 13.1024 36.2854 19.3656C36.2854 19.5167 36.2854 19.5167 36.4365 19.5167C39.3461 19.5167 42.2651 19.5167 45.1747 19.5167C45.2881 19.5167 45.307 19.5451 45.307 19.649C45.307 21.8028 45.307 23.9567 45.307 26.1105C45.307 26.2239 45.2692 26.2428 45.1653 26.2428C39.4973 26.2428 33.8292 26.2428 28.1612 26.2428C28.0384 26.2428 28.0195 26.2144 28.0195 26.0916C28.029 21.8406 28.029 17.5896 28.029 13.3386Z" fill="#061AB1"/>
</svg>
