<svg width="60" height="38" viewBox="0 0 60 38" fill="none" xmlns="http://www.w3.org/2000/svg">
<path d="M45.2578 30.3023C45.2578 26.645 48.2229 23.6807 51.8787 23.6807C55.5376 23.6807 58.5011 26.645 58.5011 30.3023C58.5011 33.9597 55.5376 36.9248 51.8787 36.9248C48.2229 36.9248 45.2578 33.9597 45.2578 30.3023Z" fill="#0000CC"/>
<path d="M22.4922 7.69814C22.4922 4.04078 25.4565 1.07568 29.1146 1.07568C32.772 1.07568 35.7363 4.04078 35.7363 7.69814C35.7363 11.3555 32.772 14.3206 29.1146 14.3206C25.4565 14.3206 22.4922 11.3555 22.4922 7.69814Z" fill="#0000CC"/>
<path d="M4.11397 23.516C4.10348 23.9484 3.95422 24.3075 3.66941 24.5939C3.38217 24.8787 3.02394 25.028 2.59067 25.0385C2.16709 25.028 1.8137 24.8787 1.52969 24.5939C1.24408 24.3075 1.09643 23.9484 1.08594 23.516C1.09804 23.0827 1.24972 22.7237 1.54099 22.4372C1.83225 22.1516 2.19371 22.004 2.62779 21.9927C3.05137 22.004 3.40154 22.1516 3.6807 22.4372C3.95906 22.7237 4.10429 23.0827 4.11397 23.516ZM3.82028 35.4974H1.36268V26.2681L3.82028 25.8824V35.4974Z" fill="#0000CC"/>
<path d="M11.7934 35.2954C11.0915 35.5834 10.4243 35.723 9.79412 35.7174C9.15995 35.7117 8.61937 35.5842 8.16997 35.3382C7.72057 35.0929 7.41639 34.7597 7.26148 34.3417C7.19048 34.1586 7.14449 33.9746 7.12432 33.789C7.10415 33.6019 7.09366 33.3033 7.09608 32.891V27.7903H6.16016V26.1016H7.09608C7.09366 25.6522 7.0985 25.2544 7.10818 24.9099C7.11706 24.5654 7.14368 24.2225 7.18886 23.882L9.68358 23.2583C9.63759 23.6948 9.60128 24.1571 9.57547 24.646C9.54884 25.135 9.53755 25.6207 9.53593 26.1016H11.7386L11.1149 27.7903H9.53593V32.5062C9.52867 33.0911 9.60048 33.4913 9.75297 33.7051C9.90465 33.9206 10.187 34.023 10.6001 34.0101C10.7066 34.0101 10.8261 33.9972 10.9592 33.9674C11.0923 33.9375 11.2666 33.8907 11.4812 33.8278L11.7934 35.2954Z" fill="#0000CC"/>
<path d="M21.0566 31.5565H15.625V31.6291C15.629 32.3577 15.8009 32.9184 16.1422 33.3113C16.4827 33.7018 16.9708 33.9011 17.6066 33.9052C18.4481 33.9052 19.2436 33.5929 19.9932 32.97L20.9477 34.4377C19.8859 35.3115 18.7055 35.7463 17.4057 35.7399C16.0405 35.7221 14.9634 35.2808 14.1735 34.4159C13.3844 33.5518 12.981 32.3722 12.9649 30.8779C12.9625 30.0412 13.0553 29.3248 13.2424 28.7261C13.4296 28.1283 13.729 27.6038 14.1388 27.1528C14.886 26.2992 15.8703 25.8772 17.0942 25.8869C17.6429 25.8885 18.1552 25.9748 18.6304 26.1475C19.1057 26.3193 19.4986 26.5622 19.8092 26.8769C20.2385 27.3101 20.5547 27.8612 20.7564 28.526C20.959 29.1917 21.059 30.0122 21.0566 30.9885C21.0566 31.195 21.0566 31.3846 21.0566 31.5565ZM18.507 29.7572V29.6475C18.5086 29.3062 18.486 29.0263 18.4425 28.8108C18.3981 28.5954 18.3222 28.4026 18.2125 28.2348C17.9809 27.8676 17.6187 27.6845 17.1306 27.6845C16.6594 27.6877 16.2979 27.8652 16.0454 28.213C15.7928 28.5648 15.6645 29.0658 15.6629 29.7226V29.7572H18.507Z" fill="#0000CC"/>
<path d="M27.3956 35.46C26.9607 35.6286 26.471 35.7149 25.9264 35.7173C25.3979 35.7133 24.9388 35.5979 24.5531 35.3696C24.1683 35.1445 23.898 34.8314 23.7439 34.4329C23.6834 34.2812 23.6374 34.1271 23.6051 33.9706C23.5728 33.8156 23.5519 33.6099 23.5398 33.359C23.5293 33.1073 23.5228 32.7611 23.5236 32.3222V25.3141C23.5236 24.7098 23.5139 24.1918 23.4938 23.7553C23.4728 23.3204 23.4413 22.8976 23.3945 22.4878L25.9094 21.9189C25.9554 22.1626 25.9869 22.4684 26.0079 22.8363C26.028 23.2034 26.0377 23.7109 26.0377 24.3588V31.6808C26.0369 32.2101 26.0401 32.6111 26.0474 32.883C26.0555 33.1557 26.0708 33.3517 26.095 33.4744C26.1184 33.5946 26.1531 33.6954 26.2031 33.7729C26.3128 33.9399 26.4782 34.0254 26.6985 34.0287C26.7703 34.0359 26.8631 34.023 26.9736 33.9923L27.3956 35.46Z" fill="#0000CC"/>
<path d="M33.0167 35.46C32.581 35.6286 32.0921 35.7149 31.5475 35.7173C31.0166 35.7133 30.5607 35.5979 30.1742 35.3696C29.7886 35.1445 29.5191 34.8314 29.365 34.4329C29.3037 34.2812 29.2577 34.1271 29.2262 33.9706C29.1939 33.8156 29.1722 33.6099 29.1609 33.359C29.1488 33.1073 29.1439 32.7611 29.1447 32.3222V25.3141C29.1447 24.7098 29.1342 24.1918 29.1133 23.7553C29.0939 23.3204 29.0608 22.8976 29.0156 22.4878L31.5305 21.9189C31.5765 22.1626 31.6088 22.4684 31.6281 22.8363C31.6491 23.2034 31.658 23.7109 31.658 24.3588V31.6808C31.6572 32.2101 31.6604 32.6111 31.6685 32.883C31.6757 33.1557 31.6919 33.3517 31.7153 33.4744C31.7379 33.5946 31.7734 33.6954 31.8226 33.7729C31.9331 33.9399 32.0985 34.0254 32.318 34.0287C32.3914 34.0359 32.4834 34.023 32.5947 33.9923L33.0167 35.46Z" fill="#0000CC"/>
<path d="M42.6674 34.4667L41.3652 35.9731C41.0747 35.8496 40.8141 35.6915 40.5794 35.493C40.3462 35.2954 40.1671 35.0767 40.0436 34.8347C39.8548 35.0275 39.6644 35.1921 39.4748 35.3301C39.0004 35.6649 38.3711 35.8375 37.5844 35.8448C36.5355 35.8384 35.7351 35.5834 35.1849 35.0783C34.6354 34.5724 34.3587 33.8503 34.3555 32.9079C34.3652 30.7311 35.8691 29.6548 38.8697 29.6782C39.0431 29.6758 39.2279 29.6822 39.4199 29.6976V29.3119C39.4296 28.7963 39.3594 28.4333 39.2061 28.2227C39.0544 28.0113 38.7575 27.9104 38.3194 27.9169C37.5239 27.933 36.6194 28.2872 35.6028 28.9819L34.5572 27.2198C34.796 27.0681 35.0292 26.935 35.2567 26.8204C35.4842 26.7058 35.7594 26.5832 36.0797 26.4493C36.5347 26.2581 36.9704 26.1177 37.3859 26.0289C37.8006 25.9402 38.2234 25.8966 38.6486 25.899C39.4425 25.9014 40.0985 26.0426 40.6173 26.3234C41.1353 26.6034 41.4886 27.006 41.6766 27.532C41.7412 27.7079 41.788 27.9104 41.8146 28.142C41.842 28.3728 41.8517 28.7302 41.842 29.2199L41.788 32.3762C41.7646 32.8733 41.8057 33.2726 41.9114 33.5728C42.0155 33.8737 42.268 34.1714 42.6674 34.4667ZM39.3828 31.3847H39.2723C38.4308 31.375 37.8345 31.4726 37.4868 31.6808C37.1382 31.8881 36.968 32.2673 36.9801 32.816C36.9857 33.1879 37.0882 33.4856 37.2867 33.7059C37.486 33.9278 37.7433 34.0399 38.062 34.0464C38.5365 34.0319 38.9641 33.8197 39.3473 33.4025L39.3828 31.3847Z" fill="#0000CC"/>
</svg>
